HIERARCHY
ROOT Pelvis
{
	OFFSET 0.000000 0.000000 0.000000
	CHANNELS 6 Xposition Yposition Zposition Xrotation Yrotation Zrotation
	JOINT LeftUpLeg_virtual
	{
		OFFSET 0.000000 0.000000 0.000000
		CHANNELS 3 Xrotation Yrotation Zrotation
		JOINT LeftUpLeg
		{
			OFFSET 18.735201 -5.666702 -4.541200
			CHANNELS 3 Xrotation Yrotation Zrotation
			JOINT LeftLeg
			{
				OFFSET -0.021200 -31.938179 0.493100
				CHANNELS 3 Xrotation Yrotation Zrotation
				JOINT LeftFoot
				{
					OFFSET 0.021200 -31.938179 -4.336299
					CHANNELS 3 Xrotation Yrotation Zrotation
					JOINT LeftToeBase
					{
						OFFSET 0.943001 -26.722000 15.023500
						CHANNELS 3 Xrotation Yrotation Zrotation
						End Site
						{
							OFFSET 0 0 0
						}
					}
				}
			}
		}
	}
	JOINT RightUpLeg_virtual
	{
		OFFSET 0.000000 0.000000 0.000000
		CHANNELS 3 Xrotation Yrotation Zrotation
		JOINT RightUpLeg
		{
			OFFSET -18.735201 -5.666702 -4.541200
			CHANNELS 3 Xrotation Yrotation Zrotation
			JOINT RightLeg
			{
				OFFSET 0.018946 -31.938133 0.493100
				CHANNELS 3 Xrotation Yrotation Zrotation
				JOINT RightFoot
				{
					OFFSET -0.018946 -31.938126 -4.336299
					CHANNELS 3 Xrotation Yrotation Zrotation
					JOINT RightToeBase
					{
						OFFSET -0.943001 -26.722004 15.023500
						CHANNELS 3 Xrotation Yrotation Zrotation
						End Site
						{
							OFFSET 0 0 0
						}
					}
				}
			}
		}
	}
	JOINT Hips_virtual
	{
		OFFSET 0.000000 0.000000 0.000000
		CHANNELS 3 Xrotation Yrotation Zrotation
		JOINT Hips
		{
			OFFSET -0.000000 -0.000000 -0.000000
			CHANNELS 3 Xrotation Yrotation Zrotation
			JOINT Spine
			{
				OFFSET 0.000000 10.199997 -0.299500
				CHANNELS 3 Xrotation Yrotation Zrotation
				JOINT Spine1
				{
					OFFSET 0.000000 11.900002 -1.516600
					CHANNELS 3 Xrotation Yrotation Zrotation
					JOINT Spine2
					{
						OFFSET 0.000000 13.600006 -2.842500
						CHANNELS 3 Xrotation Yrotation Zrotation
						JOINT Neck_virtual
						{
							OFFSET 0.000000 0.000000 0.000000
							CHANNELS 3 Xrotation Yrotation Zrotation
							JOINT Neck
							{
								OFFSET 0.000000 9.624100 -2.890100
								CHANNELS 3 Xrotation Yrotation Zrotation
								JOINT Head
								{
									OFFSET 0.000000 14.068802 -1.351900
									CHANNELS 3 Xrotation Yrotation Zrotation
									End Site
									{
										OFFSET 0 0 0
									}
								}
							}
						}
						JOINT LeftShoulder_virtual
						{
							OFFSET 0.000000 0.000000 0.000000
							CHANNELS 3 Xrotation Yrotation Zrotation
							JOINT LeftShoulder
							{
								OFFSET 15.263000 10.923401 -0.547700
								CHANNELS 3 Xrotation Yrotation Zrotation
								JOINT LeftArm
								{
									OFFSET 25.438599 -2.830597 -13.032500
									CHANNELS 3 Xrotation Yrotation Zrotation
									JOINT LeftForeArm
									{
										OFFSET 29.960503 0.000000 0.000000
										CHANNELS 3 Xrotation Yrotation Zrotation
										JOINT LeftHand
										{
											OFFSET 27.849251 0.000000 0.000000
											CHANNELS 3 Xrotation Yrotation Zrotation
											End Site
											{
												OFFSET 0 0 0
											}
										}
									}
								}
							}
						}
						JOINT RightShoulder_virtual
						{
							OFFSET 0.000000 0.000000 0.000000
							CHANNELS 3 Xrotation Yrotation Zrotation
							JOINT RightShoulder
							{
								OFFSET -15.263000 10.923401 -0.547700
								CHANNELS 3 Xrotation Yrotation Zrotation
								JOINT RightArm
								{
									OFFSET -25.438599 -2.830597 -13.032500
									CHANNELS 3 Xrotation Yrotation Zrotation
									JOINT RightForeArm
									{
										OFFSET -29.960503 0.000000 0.000000
										CHANNELS 3 Xrotation Yrotation Zrotation
										JOINT RightHand
										{
											OFFSET -27.849251 0.000000 0.000000
											CHANNELS 3 Xrotation Yrotation Zrotation
											End Site
											{
												OFFSET 0 0 0
											}
										}
									}
								}
							}
						}
					}
				}
			}
		}
	}
}
MOTION
Frames: 10
Frame Time: 0.03333333
2.486853 112.626236 1.072094 0.000000 0.000000 0.000000 -29.775086 -4.005573 1.159072 -76.458347 1.294027 19.607933 45.004854 15.394080 -13.692040 -9.247405 20.129213 -14.175891 0.000000 0.000000 0.000000 -35.917458 9.465607 0.910398 -73.818875 4.673084 -14.295361 44.965024 -20.067483 5.177605 -11.994163 -23.537894 4.509316 0.000000 0.000000 0.000000 -20.481408 -1.118966 1.842581 -90.192265 2.291576 6.745495 17.854673 2.585737 -1.364373 11.159085 1.315736 -1.824389 0.000000 0.000000 0.000000 13.578473 1.175016 -3.525248 2.746325 0.764177 -0.606858 0.000000 0.000000 0.000000 13.753945 3.220245 -0.031614 5.158859 5.684936 -2.204612 -5.736623 -31.635544 -54.902683 23.357116 -82.555028 20.620990 0.000000 0.000000 0.000000 13.944514 3.628268 0.226335 3.846683 4.938719 13.278838 -20.644761 38.118128 48.863925 -176.858869 64.184729 178.567687 0.000000 0.000000 0.000000 
2.463149 112.603104 1.122179 0.000000 0.000000 0.000000 -29.817020 -4.086932 1.190832 -76.488119 1.245190 19.630553 45.163834 15.447176 -13.756018 -9.139455 20.201466 -14.212692 0.000000 0.000000 0.000000 -36.000158 9.342563 0.879770 -73.905802 4.657179 -14.301186 45.156699 -20.046189 5.164841 -11.873366 -23.501960 4.472702 0.000000 0.000000 0.000000 -20.561390 -1.583857 1.817813 -89.621016 2.702723 7.196823 17.452426 2.455549 -1.340925 10.884517 1.246560 -1.780787 0.000000 0.000000 0.000000 13.425866 1.117655 -3.459408 2.703664 0.764010 -0.601316 0.000000 0.000000 0.000000 13.513862 3.114386 0.015803 5.176515 5.733792 -2.222337 -5.514038 -31.351251 -55.018205 22.237071 -82.233804 19.394382 0.000000 0.000000 0.000000 13.704302 3.499972 0.275651 3.866456 4.905470 13.385763 -20.742176 38.256689 49.055218 -176.975447 64.186826 178.658570 0.000000 0.000000 0.000000 
2.445744 112.571808 1.188212 0.000000 0.000000 0.000000 -29.860829 -4.172088 1.214707 -76.521929 1.198899 19.649423 45.392942 15.509918 -13.845189 -8.983259 20.292009 -14.268572 0.000000 0.000000 0.000000 -36.089685 9.237855 0.845318 -73.998351 4.650082 -14.311044 45.400278 -20.034499 5.155851 -11.730573 -23.469447 4.426444 0.000000 0.000000 0.000000 -20.636631 -2.085282 1.786461 -88.963644 3.141031 7.654962 17.013091 2.294738 -1.305289 10.586279 1.162408 -1.728806 0.000000 0.000000 0.000000 13.237986 1.042068 -3.385847 2.646007 0.756689 -0.595091 0.000000 0.000000 0.000000 13.244526 2.991976 0.071002 5.177280 5.754560 -2.234571 -5.282604 -31.071251 -55.163859 21.145197 -81.897677 18.178793 0.000000 0.000000 0.000000 13.434325 3.351744 0.330511 3.872954 4.824064 13.494129 -20.787034 38.372180 49.238137 -177.104606 64.202795 178.766978 0.000000 0.000000 0.000000 
2.435067 112.535339 1.266498 0.000000 0.000000 0.000000 -29.905591 -4.257072 1.232177 -76.558805 1.155780 19.665231 45.682194 15.582694 -13.956463 -8.786031 20.399931 -14.339946 0.000000 0.000000 0.000000 -36.182470 9.148846 0.807378 -74.093257 4.650268 -14.324875 45.681651 -20.031732 5.150279 -11.574186 -23.440567 4.372639 0.000000 0.000000 0.000000 -20.709560 -2.620907 1.747672 -88.233408 3.597068 8.112556 16.540293 2.104476 -1.259048 10.266614 1.064102 -1.669316 0.000000 0.000000 0.000000 13.013915 0.948372 -3.305266 2.572855 0.741912 -0.588027 0.000000 0.000000 0.000000 12.946863 2.853232 0.132566 5.161185 5.743049 -2.242936 -5.036673 -30.802012 -55.338042 20.105312 -81.548736 16.996180 0.000000 0.000000 0.000000 13.136046 3.185324 0.389269 3.867015 4.696640 13.600057 -20.773225 38.465313 49.407065 -177.246988 64.230853 178.894716 0.000000 0.000000 0.000000 
2.430965 112.496902 1.353617 0.000000 0.000000 0.000000 -29.951032 -4.338603 1.245514 -76.598154 1.115734 19.679107 46.017877 15.664875 -14.085482 -8.557752 20.522874 -14.422580 0.000000 0.000000 0.000000 -36.274196 9.071697 0.766515 -74.186537 4.655588 -14.342323 45.984525 -20.035819 5.147881 -11.412986 -23.414838 4.314946 0.000000 0.000000 0.000000 -20.783251 -3.185911 1.701212 -87.446359 4.062066 8.566228 16.039069 1.887999 -1.204358 9.928542 0.953458 -1.603504 0.000000 0.000000 0.000000 12.753368 0.838137 -3.218637 2.483990 0.720130 -0.580004 0.000000 0.000000 0.000000 12.623059 2.699392 0.198757 5.129210 5.697570 -2.249727 -4.772315 -30.548482 -55.537166 19.134980 -81.188580 15.863558 0.000000 0.000000 0.000000 12.811745 3.003680 0.450244 3.849581 4.529034 13.700739 -20.698928 38.535138 49.558148 -177.401651 64.270851 179.041251 0.000000 0.000000 0.000000 
2.432691 112.459602 1.446737 0.000000 0.000000 0.000000 -29.997340 -4.414126 1.257817 -76.639654 1.077923 19.692721 46.383996 15.754675 -14.227046 -8.310063 20.657079 -14.512110 0.000000 0.000000 0.000000 -36.360242 9.001390 0.723266 -74.273991 4.663476 -14.362903 46.292273 -20.043636 5.148608 -11.255120 -23.391209 4.258217 0.000000 0.000000 0.000000 -20.861266 -3.773447 1.647439 -86.620746 4.528412 9.016333 15.515161 1.650453 -1.143689 9.575497 0.833210 -1.532753 0.000000 0.000000 0.000000 12.456871 0.714264 -3.127265 2.379534 0.692497 -0.571015 0.000000 0.000000 0.000000 12.276142 2.532711 0.267698 5.082888 5.619330 -2.257434 -4.487923 -30.313968 -55.755644 18.246454 -80.818507 14.794166 0.000000 0.000000 0.000000 12.464101 2.810733 0.511850 3.821270 4.329932 13.794573 -20.566627 38.578445 49.689783 -177.565753 64.324536 179.203578 0.000000 0.000000 0.000000 
2.438954 112.426147 1.543579 0.000000 0.000000 0.000000 -30.044766 -4.481721 1.272796 -76.682978 1.040990 19.708185 46.763730 15.849242 -14.375579 -8.055080 20.797701 -14.604585 0.000000 0.000000 0.000000 -36.436426 8.931990 0.677915 -74.351889 4.671220 -14.386122 46.590015 -20.051610 5.152657 -11.107179 -23.368384 4.207827 0.000000 0.000000 0.000000 -20.947347 -4.375388 1.587133 -85.776104 4.989904 9.465858 14.974418 1.398446 -1.079573 9.211003 0.706782 -1.458537 0.000000 0.000000 0.000000 12.126123 0.580641 -3.032808 2.260117 0.660709 -0.561220 0.000000 0.000000 0.000000 11.909645 2.356267 0.337554 5.023932 5.512222 -2.268333 -4.183714 -30.100183 -55.986282 17.447937 -80.439862 13.798587 0.000000 0.000000 0.000000 12.095987 2.610938 0.572648 3.782279 4.109639 13.880974 -20.381769 38.590098 49.802218 -177.735046 64.395700 179.376914 0.000000 0.000000 0.000000 
2.448011 112.398529 1.642166 0.000000 0.000000 0.000000 -30.093171 -4.540071 1.294283 -76.727415 1.003402 19.727758 47.140610 15.945020 -14.525548 -7.804348 20.939349 -14.696764 0.000000 0.000000 0.000000 -36.499684 8.857026 0.630445 -74.417575 4.676215 -14.411571 46.866245 -20.056302 5.160444 -10.973542 -23.345102 4.168907 0.000000 0.000000 0.000000 -21.044971 -4.983159 1.521268 -84.931947 5.441921 9.918784 14.422470 1.139407 -1.014412 8.838502 0.577953 -1.382341 0.000000 0.000000 0.000000 11.764418 0.441676 -2.937204 2.127074 0.626761 -0.550970 0.000000 0.000000 0.000000 11.527315 2.173670 0.406664 4.953984 5.382172 -2.284261 -3.860622 -29.907179 -56.220926 16.744260 -80.053710 12.884932 0.000000 0.000000 0.000000 11.710451 2.408846 0.631356 3.732543 3.878734 13.959951 -20.150562 38.564006 49.896533 -177.905077 64.489745 179.556056 0.000000 0.000000 0.000000 
2.457754 112.377785 1.740540 0.000000 0.000000 0.000000 -30.141830 -4.588552 1.325609 -76.771784 0.963783 19.753488 47.499598 16.038251 -14.671767 -7.567991 21.076697 -14.786074 0.000000 0.000000 0.000000 -36.548540 8.770006 0.580721 -74.469935 4.676121 -14.438784 47.113644 -20.055005 5.172525 -10.856190 -23.320551 4.145599 0.000000 0.000000 0.000000 -21.156921 -5.588492 1.450780 -84.106458 5.881457 10.378314 13.864504 0.880831 -0.950383 8.461235 0.450487 -1.305616 0.000000 0.000000 0.000000 11.376845 0.301801 -2.842475 1.982526 0.592667 -0.540746 0.000000 0.000000 0.000000 11.132913 1.988680 0.473626 4.874481 5.236222 -2.306599 -3.519308 -29.733391 -56.451346 16.137165 -79.660619 12.058552 0.000000 0.000000 0.000000 11.310767 2.208703 0.686846 3.671994 3.646910 14.031704 -19.877724 38.494482 49.973506 -178.072375 64.613070 179.736974 0.000000 0.000000 0.000000 
2.465787 112.363876 1.836621 0.000000 0.000000 0.000000 -30.189364 -4.627394 1.369062 -76.814452 0.921133 19.786829 47.828004 16.125583 -14.809595 -7.354066 21.205128 -14.870420 0.000000 0.000000 0.000000 -36.583227 8.665112 0.528799 -74.509461 4.668975 -14.467121 47.329051 -20.046173 5.189414 -10.755014 -23.294487 4.140458 0.000000 0.000000 0.000000 -21.284937 -6.184078 1.376389 -83.315126 6.306967 10.845419 13.305158 0.629553 -0.889391 8.082203 0.327760 -1.229748 0.000000 0.000000 0.000000 10.970048 0.164981 -2.750440 1.829272 0.560196 -0.531048 0.000000 0.000000 0.000000 10.730056 1.804854 0.537316 4.786582 5.081526 -2.336362 -3.159945 -29.575641 -56.670134 15.625046 -79.260944 11.321486 0.000000 0.000000 0.000000 10.900428 2.014141 0.738155 3.600746 3.422086 14.096371 -19.564906 38.377402 50.033017 -178.235398 64.772187 179.917892 0.000000 0.000000 0.000000 
